Coordinates
version=1
nRows=10
nColumns=23
inDegrees=yes

Units are S.I. units (second, meters, Newtons, ...)
Angles are in degrees.

endheader
time	pelvis_tilt	pelvis_list	pelvis_rotation	pelvis_tx	pelvis_ty	pelvis_tz	hip_flexion_r	hip_adduction_r	hip_rotation_r	knee_angle_r	knee_angle_r_beta	ankle_angle_r	subtalar_angle_r	mtp_angle_r	hip_flexion_l	hip_adduction_l	hip_rotation_l	knee_angle_l	knee_angle_l_beta	ankle_angle_l	subtalar_angle_l	mtp_angle_l
    122.00000000	    -21.29324393	      1.68459986	      7.66043726	      0.02958479	      1.37743222	      0.21339435	     53.64388852	     -9.57644852	      2.16700976	     74.50812408	      1.30041208	      0.32221531	      0.00000000	      0.00000000	     71.93900957	      2.18164774	      0.94907810	     68.99172142	      1.20413270	     15.17910248	      0.00000000	      0.00000000
    122.00888900	    -20.99566545	      1.10276467	      6.83507273	      0.02997399	      1.37762073	      0.21388433	     54.84216951	     -8.58682818	      2.48200713	     77.64567756	      1.35517272	      0.36780502	      0.00000000	      0.00000000	     69.75627967	      1.20001081	      1.14604587	     65.29172039	      1.13955550	     14.46337305	      0.00000000	      0.00000000
    122.01777800	    -20.77091437	      0.41475822	      5.97430162	      0.03047851	      1.37783829	      0.21443747	     56.11672687	     -7.49919726	      2.69559487	     80.63359247	      1.40732168	      0.36102682	      0.00000000	      0.00000000	     67.59194160	      0.08093678	      1.27113557	     61.55410983	      1.07432188	     13.51291011	      0.00000000	      0.00000000
    122.02666700	    -20.55690663	     -0.09377594	      5.12749892	      0.03085895	      1.37801794	      0.21495224	     57.48346231	     -6.57429647	      2.99460223	     83.58999183	      1.45892058	      0.29117084	      0.00000000	      0.00000000	     65.36289714	     -0.96504297	      1.09313527	     57.79110711	      1.00864510	     12.42483917	      0.00000000	      0.00000000
    122.03555600	    -20.45740374	     -0.85364075	      4.23760029	      0.03123348	      1.37808550	      0.21555949	     58.96531248	     -5.44540090	      3.05681044	     86.35999626	      1.50726628	      0.21269469	      0.00000000	      0.00000000	     63.31139346	     -2.23320884	      0.91215735	     54.12465159	      0.94465338	     10.88218391	      0.00000000	      0.00000000
    122.04444400	    -20.43376000	     -1.43708864	      3.37506483	      0.03158247	      1.37817758	      0.21616249	     60.57013348	     -4.47405378	      3.19396949	     89.03315229	      1.55392165	      0.10131479	      0.00000000	      0.00000000	     61.27803498	     -3.39321435	      0.43807888	     50.46817186	      0.88083577	      9.14260936	      0.00000000	      0.00000000
    122.05333300	    -20.50204356	     -2.04854184	      2.50927714	      0.03192095	      1.37826315	      0.21677023	     62.28260032	     -3.50761141	      3.22144438	     91.54004169	      1.59767512	     -0.00255543	      0.00000000	      0.00000000	     59.36694316	     -4.59146542	     -0.20046947	     46.91113675	      0.81875379	      7.06870868	      0.00000000	      0.00000000
    122.06222200	    -20.64616048	     -2.68351459	      1.64798644	      0.03215532	      1.37828772	      0.21735876	     64.08506514	     -2.53410589	      3.17671673	     93.88719884	      1.63864075	     -0.08477523	      0.00000000	      0.00000000	     57.58918635	     -5.78952804	     -0.90442748	     43.51715250	      0.75951759	      4.74927719	      0.00000000	      0.00000000
    122.07111100	    -20.86965824	     -3.00568627	      0.85253071	      0.03238312	      1.37829351	      0.21785300	     66.01943015	     -1.83495226	      3.29824656	     96.13236018	      1.67782620	     -0.18291249	      0.00000000	      0.00000000	     55.85696937	     -6.70278448	     -1.92089414	     40.19894133	      0.70160388	      2.25472841	      0.00000000	      0.00000000
    122.08000000	    -21.13569101	     -3.43906531	      0.06909260	      0.03257834	      1.37830524	      0.21829575	     67.96356657	     -1.08215036	      3.26167148	     98.16282463	      1.71326449	     -0.19392116	      0.00000000	      0.00000000	     54.26814093	     -7.65989387	     -2.87893737	     37.12458372	      0.64794622	     -0.35326061	      0.00000000	      0.00000000
